<svg width="10" height="6" viewBox="0 0 10 6" fill="none" xmlns="http://www.w3.org/2000/svg">
<path d="M5.00483 5.58545C4.83873 5.58545 4.68871 5.52121 4.55477 5.39274L0.906077 1.73936C0.793562 1.6216 0.737305 1.48242 0.737305 1.32183C0.737305 1.15054 0.794902 1.00735 0.910095 0.892258C1.02529 0.77717 1.16593 0.719626 1.33203 0.719626C1.49812 0.719626 1.64278 0.778508 1.76601 0.896273L5.00483 4.14818L8.24364 0.896273C8.36687 0.778508 8.50886 0.719626 8.66959 0.719626C8.84104 0.719626 8.98436 0.77717 9.09956 0.892258C9.21475 1.00735 9.27235 1.15054 9.27235 1.32183C9.27235 1.48242 9.21341 1.6216 9.09554 1.73936L5.45489 5.39274C5.33166 5.52121 5.18164 5.58545 5.00483 5.58545Z" fill="#1D1D1F"/>
</svg>
