<svg width="19" height="26" viewBox="0 0 19 26" fill="none" xmlns="http://www.w3.org/2000/svg">
<path d="M17.9598 23C17.9598 23.1326 17.8649 23.2598 17.6962 23.3536C17.5274 23.4473 17.2985 23.5 17.0598 23.5H2.65977C2.42107 23.5 2.19215 23.4473 2.02337 23.3536C1.85459 23.2598 1.75977 23.1326 1.75977 23C1.75977 22.8674 1.85459 22.7402 2.02337 22.6464C2.19215 22.5527 2.42107 22.5 2.65977 22.5H2.68677C2.80141 22.5 2.91493 22.4875 3.02085 22.4631C3.12677 22.4387 3.223 22.403 3.30407 22.3579C3.38514 22.3129 3.44944 22.2594 3.49331 22.2006C3.53718 22.1418 3.55977 22.0787 3.55977 22.015V15.7934C4.06954 16.1575 4.67656 16.4761 5.35977 16.7382V22.015C5.36008 22.1801 5.31062 22.344 5.21343 22.5H14.5063C14.409 22.344 14.3594 22.1801 14.3598 22.015V16.7382C15.043 16.4761 15.65 16.1575 16.1598 15.7934V22.015C16.1598 22.1436 16.2518 22.267 16.4156 22.358C16.5793 22.4489 16.8014 22.5 17.0329 22.5H17.0598C17.2985 22.5 17.5274 22.5527 17.6962 22.6464C17.8649 22.7402 17.9598 22.8674 17.9598 23ZM14.5048 3.5H5.21307C5.31054 3.65596 5.36013 3.81991 5.35977 3.985V13C5.35977 13.663 5.83387 14.2989 6.67779 14.7678C7.5217 15.2366 8.66629 15.5 9.85977 15.5C11.0532 15.5 12.1978 15.2366 13.0417 14.7678C13.8857 14.2989 14.3598 13.663 14.3598 13V3.985C14.3594 3.81998 14.4084 3.65608 14.5048 3.5ZM17.0598 2.5C17.2985 2.5 17.5274 2.55268 17.6962 2.64645C17.8649 2.74021 17.9598 2.86739 17.9598 3C17.9598 3.13261 17.8649 3.25979 17.6962 3.35355C17.5274 3.44732 17.2985 3.5 17.0598 3.5H17.0328C16.8012 3.5 16.5792 3.5511 16.4155 3.64205C16.2517 3.73301 16.1598 3.85637 16.1598 3.985V13C16.1598 13.9283 15.496 14.8185 14.3145 15.4749C13.1331 16.1313 11.5306 16.5 9.85977 16.5C8.1889 16.5 6.58647 16.1313 5.40499 15.4749C4.22351 14.8185 3.55977 13.9283 3.55977 13V3.985C3.55977 3.85637 3.46779 3.73301 3.30407 3.64205C3.14035 3.5511 2.9183 3.5 2.68677 3.5H2.65977C2.42107 3.5 2.19215 3.44732 2.02337 3.35355C1.85459 3.25979 1.75977 3.13261 1.75977 3C1.75977 2.86739 1.85459 2.74021 2.02337 2.64645C2.19215 2.55268 2.42107 2.5 2.65977 2.5H17.0598ZM11.2675 13C11.2675 12.8517 11.1884 12.7067 11.04 12.5833C10.8917 12.46 10.6808 12.3639 10.4342 12.3071C10.1875 12.2503 9.91605 12.2355 9.65417 12.2644C9.3923 12.2934 9.15175 12.3648 8.96295 12.4697C8.77415 12.5746 8.64558 12.7082 8.59349 12.8537C8.5414 12.9992 8.56813 13.15 8.67031 13.287C8.77249 13.4241 8.94552 13.5412 9.16753 13.6236C9.38953 13.706 9.65054 13.75 9.91755 13.75C10.2756 13.75 10.619 13.671 10.8721 13.5303C11.1253 13.3897 11.2675 13.1989 11.2675 13ZM11.2675 10.5C11.2675 10.3517 11.1884 10.2067 11.04 10.0833C10.8917 9.95999 10.6808 9.86386 10.4342 9.80709C10.1875 9.75033 9.91605 9.73547 9.65417 9.76441C9.3923 9.79335 9.15175 9.86478 8.96295 9.96967C8.77415 10.0746 8.64558 10.2082 8.59349 10.3537C8.5414 10.4992 8.56813 10.65 8.67031 10.787C8.77249 10.9241 8.94552 11.0412 9.16753 11.1236C9.38953 11.206 9.65054 11.25 9.91755 11.25C10.2756 11.25 10.619 11.171 10.8721 11.0303C11.1253 10.8897 11.2675 10.6989 11.2675 10.5ZM11.2675 8C11.2675 7.85166 11.1884 7.70666 11.04 7.58332C10.8917 7.45999 10.6808 7.36386 10.4342 7.30709C10.1875 7.25032 9.91605 7.23547 9.65417 7.26441C9.3923 7.29335 9.15175 7.36478 8.96295 7.46967C8.77415 7.57456 8.64558 7.7082 8.59349 7.85368C8.5414 7.99917 8.56813 8.14997 8.67031 8.28701C8.77249 8.42406 8.94552 8.54119 9.16753 8.6236C9.38953 8.70601 9.65054 8.75 9.91755 8.75C10.2756 8.75 10.619 8.67098 10.8721 8.53033C11.1253 8.38968 11.2675 8.19891 11.2675 8Z" fill="#1D1D1F"/>
</svg>
