<svg width="26" height="26" viewBox="0 0 26 26" fill="none" xmlns="http://www.w3.org/2000/svg">
<path d="M24.3893 8.70149C24.1444 8.52139 23.8231 8.43119 23.4256 8.43119H22.9187V8.40869C22.9187 6.18339 20.2657 4.37939 16.9932 4.37939H6.7853C3.5128 4.37949 0.859863 6.18339 0.859863 8.40879V17.3502C0.859863 19.5755 3.5128 21.3795 6.7853 21.3795H16.9932C20.2657 21.3795 22.9187 19.5755 22.9187 17.3502V12.1598H23.4256C23.8231 12.1598 24.1444 12.0675 24.3893 11.8828C24.6344 11.6984 24.7569 11.4574 24.7569 11.1601V9.41739C24.7569 9.12019 24.6344 8.88179 24.3893 8.70149ZM21.4481 17.3502C21.4481 19.0206 19.4497 20.3795 16.9932 20.3795H6.7853C4.32883 20.3795 2.33045 19.0206 2.33045 17.3502V8.40879C2.33045 6.73839 4.32883 5.37949 6.7853 5.37949H16.9932C19.4497 5.37949 21.4481 6.73839 21.4481 8.40879V17.3502Z" fill="#1D1D1F"/>
</svg>
