<svg width="28" height="26" viewBox="0 0 28 26" fill="none" xmlns="http://www.w3.org/2000/svg">
<path d="M26.7942 9.5379V11.2806C26.7942 11.5778 26.6758 11.8188 26.4389 12.0033C26.2023 12.188 25.8918 12.2803 25.5077 12.2803H25.0179V17.4707C25.0179 19.696 22.4543 21.5 19.292 21.5H15.9322C16.3999 21.2135 16.7965 20.8784 17.1119 20.5H19.292C21.6658 20.5 23.5968 19.1411 23.5968 17.4707V8.5293C23.5968 6.8589 21.6658 5.5 19.292 5.5H9.42794C7.57005 5.5 5.99809 6.3372 5.39613 7.5H5.14773C4.70535 7.5 4.27904 7.5437 3.86509 7.6111C4.45766 5.8301 6.71614 4.5 9.42794 4.5H19.292C22.4543 4.5 25.0179 6.304 25.0179 8.5293V8.5518H25.5077C25.8918 8.5518 26.2023 8.642 26.4389 8.8221C26.6758 9.0024 26.7942 9.2407 26.7942 9.5379ZM16.4916 18.4826C16.4916 20.149 14.572 21.4999 12.2038 21.4999H5.14773C2.77954 21.4999 0.859985 20.1489 0.859985 18.4826V11.5173C0.859985 9.8509 2.77954 8.5 5.14773 8.5H12.2037C14.5719 8.5 16.4914 9.851 16.4914 11.5173V11.6388H16.9285C17.2224 11.6388 17.4597 11.7078 17.6408 11.8455C17.8218 11.9834 17.9125 12.1657 17.9125 12.393V13.7256C17.9125 13.9529 17.822 14.1372 17.6408 14.2782C17.4597 14.4194 17.2224 14.49 16.9285 14.49H16.4914L16.4916 18.4826ZM15.0705 11.5173C15.0705 10.405 13.7845 9.5 12.2038 9.5H5.14773C5.13934 9.5 5.13139 9.5017 5.12314 9.5017C4.60304 9.5049 4.12159 9.6113 3.70209 9.7854C2.85628 10.1365 2.28104 10.7776 2.28104 11.5173V18.4826C2.28104 19.5949 3.56709 20.4999 5.14773 20.4999H12.2037C13.7843 20.4999 15.0704 19.5949 15.0704 18.4826L15.0705 11.5173Z" fill="#1D1D1F"/>
</svg>
